<?xml version="1.0" encoding="utf-8" ?>
<svg xmlns="http://www.w3.org/2000/svg" xmlns:ev="http://www.w3.org/2001/xml-events" xmlns:xlink="http://www.w3.org/1999/xlink" baseProfile="full" height="297mm" version="1.1" viewBox="0,0,420,297" width="420mm">
  <defs/>
  <line stroke="black" stroke-width="1" x1="30.0" x2="30.0" y1="28.5" y2="238.5"/>
  <line stroke="black" stroke-width="1" x1="60.0" x2="60.0" y1="28.5" y2="238.5"/>
  <line stroke="black" stroke-width="1" x1="90.0" x2="90.0" y1="28.5" y2="238.5"/>
  <line stroke="black" stroke-width="1" x1="120.0" x2="120.0" y1="28.5" y2="238.5"/>
  <line stroke="black" stroke-width="1" x1="150.0" x2="150.0" y1="28.5" y2="238.5"/>
  <line stroke="black" stroke-width="1" x1="180.0" x2="180.0" y1="28.5" y2="238.5"/>
  <line stroke="black" stroke-width="1" x1="210.0" x2="210.0" y1="28.5" y2="238.5"/>
  <line stroke="black" stroke-width="1" x1="240.0" x2="240.0" y1="28.5" y2="238.5"/>
  <line stroke="black" stroke-width="1" x1="270.0" x2="270.0" y1="28.5" y2="238.5"/>
  <line stroke="black" stroke-width="1" x1="300.0" x2="300.0" y1="28.5" y2="238.5"/>
  <line stroke="black" stroke-width="1" x1="330.0" x2="330.0" y1="28.5" y2="238.5"/>
  <line stroke="black" stroke-width="1" x1="360.0" x2="360.0" y1="28.5" y2="238.5"/>
  <line stroke="black" stroke-width="1" x1="30.0" x2="360.0" y1="28.5" y2="28.5"/>
  <line stroke="black" stroke-width="1" x1="30.0" x2="360.0" y1="58.5" y2="58.5"/>
  <line stroke="black" stroke-width="1" x1="30.0" x2="360.0" y1="88.5" y2="88.5"/>
  <line stroke="black" stroke-width="1" x1="30.0" x2="360.0" y1="118.5" y2="118.5"/>
  <line stroke="black" stroke-width="1" x1="30.0" x2="360.0" y1="148.5" y2="148.5"/>
  <line stroke="black" stroke-width="1" x1="30.0" x2="360.0" y1="178.5" y2="178.5"/>
  <line stroke="black" stroke-width="1" x1="30.0" x2="360.0" y1="208.5" y2="208.5"/>
  <line stroke="black" stroke-width="1" x1="30.0" x2="360.0" y1="238.5" y2="238.5"/>
  <line stroke="rgb(35,181,221)" stroke-width="1" x1="190.8" x2="190.8" y1="132.0" y2="135.0"/>
  <line stroke="rgb(35,181,221)" stroke-width="1" x1="169.2" x2="169.2" y1="132.0" y2="135.0"/>
  <line stroke="rgb(35,181,221)" stroke-width="1" x1="193.5" x2="196.5" y1="159.3" y2="159.3"/>
  <line stroke="rgb(35,181,221)" stroke-width="1" x1="193.5" x2="196.5" y1="137.7" y2="137.7"/>
  <line stroke="rgb(35,181,221)" stroke-width="1" x1="220.8" x2="220.8" y1="162.0" y2="165.0"/>
  <line stroke="rgb(35,181,221)" stroke-width="1" x1="199.2" x2="199.2" y1="162.0" y2="165.0"/>
  <line stroke="rgb(35,181,221)" stroke-width="1" x1="223.5" x2="226.5" y1="189.3" y2="189.3"/>
  <line stroke="rgb(35,181,221)" stroke-width="1" x1="223.5" x2="226.5" y1="167.7" y2="167.7"/>
  <line stroke="rgb(35,181,221)" stroke-width="1" x1="250.8" x2="250.8" y1="165.0" y2="162.0"/>
  <line stroke="rgb(35,181,221)" stroke-width="1" x1="229.2" x2="229.2" y1="165.0" y2="162.0"/>
  <line stroke="rgb(35,181,221)" stroke-width="1" x1="250.8" x2="250.8" y1="135.0" y2="132.0"/>
  <line stroke="rgb(35,181,221)" stroke-width="1" x1="229.2" x2="229.2" y1="135.0" y2="132.0"/>
  <line stroke="rgb(35,181,221)" stroke-width="1" x1="253.5" x2="256.5" y1="129.3" y2="129.3"/>
  <line stroke="rgb(35,181,221)" stroke-width="1" x1="253.5" x2="256.5" y1="107.7" y2="107.7"/>
  <line stroke="rgb(35,181,221)" stroke-width="1" x1="280.8" x2="280.8" y1="132.0" y2="135.0"/>
  <line stroke="rgb(35,181,221)" stroke-width="1" x1="259.2" x2="259.2" y1="132.0" y2="135.0"/>
  <line stroke="rgb(35,181,221)" stroke-width="1" x1="280.8" x2="280.8" y1="162.0" y2="165.0"/>
  <line stroke="rgb(35,181,221)" stroke-width="1" x1="259.2" x2="259.2" y1="162.0" y2="165.0"/>
  <line stroke="rgb(35,181,221)" stroke-width="1" x1="280.8" x2="280.8" y1="192.0" y2="195.0"/>
  <line stroke="rgb(35,181,221)" stroke-width="1" x1="259.2" x2="259.2" y1="192.0" y2="195.0"/>
  <line stroke="rgb(35,181,221)" stroke-width="1" x1="283.5" x2="286.5" y1="219.3" y2="219.3"/>
  <line stroke="rgb(35,181,221)" stroke-width="1" x1="283.5" x2="286.5" y1="197.7" y2="197.7"/>
  <line stroke="rgb(35,181,221)" stroke-width="1" x1="313.5" x2="316.5" y1="219.3" y2="219.3"/>
  <line stroke="rgb(35,181,221)" stroke-width="1" x1="313.5" x2="316.5" y1="197.7" y2="197.7"/>
  <line stroke="rgb(35,181,221)" stroke-width="1" x1="340.8" x2="340.8" y1="222.0" y2="225.0"/>
  <line stroke="rgb(35,181,221)" stroke-width="1" x1="319.2" x2="319.2" y1="222.0" y2="225.0"/>
  <line stroke="rgb(35,181,221)" stroke-width="1" x1="316.5" x2="313.5" y1="249.3" y2="249.3"/>
  <line stroke="rgb(35,181,221)" stroke-width="1" x1="316.5" x2="313.5" y1="227.7" y2="227.7"/>
  <line stroke="rgb(35,181,221)" stroke-width="1" x1="286.5" x2="283.5" y1="249.3" y2="249.3"/>
  <line stroke="rgb(35,181,221)" stroke-width="1" x1="286.5" x2="283.5" y1="227.7" y2="227.7"/>
  <line stroke="rgb(35,181,221)" stroke-width="1" x1="256.5" x2="253.5" y1="249.3" y2="249.3"/>
  <line stroke="rgb(35,181,221)" stroke-width="1" x1="256.5" x2="253.5" y1="227.7" y2="227.7"/>
  <line stroke="rgb(35,181,221)" stroke-width="1" x1="226.5" x2="223.5" y1="249.3" y2="249.3"/>
  <line stroke="rgb(35,181,221)" stroke-width="1" x1="226.5" x2="223.5" y1="227.7" y2="227.7"/>
  <line stroke="rgb(35,181,221)" stroke-width="1" x1="196.5" x2="193.5" y1="249.3" y2="249.3"/>
  <line stroke="rgb(35,181,221)" stroke-width="1" x1="196.5" x2="193.5" y1="227.7" y2="227.7"/>
  <line stroke="rgb(35,181,221)" stroke-width="1" x1="166.5" x2="163.5" y1="249.3" y2="249.3"/>
  <line stroke="rgb(35,181,221)" stroke-width="1" x1="166.5" x2="163.5" y1="227.7" y2="227.7"/>
  <line stroke="rgb(35,181,221)" stroke-width="1" x1="160.8" x2="160.8" y1="225.0" y2="222.0"/>
  <line stroke="rgb(35,181,221)" stroke-width="1" x1="139.2" x2="139.2" y1="225.0" y2="222.0"/>
  <line stroke="rgb(35,181,221)" stroke-width="1" x1="136.5" x2="133.5" y1="219.3" y2="219.3"/>
  <line stroke="rgb(35,181,221)" stroke-width="1" x1="136.5" x2="133.5" y1="197.7" y2="197.7"/>
  <line stroke="rgb(35,181,221)" stroke-width="1" x1="106.5" x2="103.5" y1="219.3" y2="219.3"/>
  <line stroke="rgb(35,181,221)" stroke-width="1" x1="106.5" x2="103.5" y1="197.7" y2="197.7"/>
  <line stroke="rgb(35,181,221)" stroke-width="1" x1="100.8" x2="100.8" y1="222.0" y2="225.0"/>
  <line stroke="rgb(35,181,221)" stroke-width="1" x1="79.2" x2="79.2" y1="222.0" y2="225.0"/>
  <line stroke="rgb(35,181,221)" stroke-width="1" x1="103.5" x2="106.5" y1="249.3" y2="249.3"/>
  <line stroke="rgb(35,181,221)" stroke-width="1" x1="103.5" x2="106.5" y1="227.7" y2="227.7"/>
  <line stroke="rgb(35,181,221)" stroke-width="1" x1="130.8" x2="130.8" y1="225.0" y2="222.0"/>
  <line stroke="rgb(35,181,221)" stroke-width="1" x1="109.2" x2="109.2" y1="225.0" y2="222.0"/>
  <line stroke="rgb(35,181,221)" stroke-width="1" x1="130.8" x2="130.8" y1="195.0" y2="192.0"/>
  <line stroke="rgb(35,181,221)" stroke-width="1" x1="109.2" x2="109.2" y1="195.0" y2="192.0"/>
  <line stroke="rgb(35,181,221)" stroke-width="1" x1="130.8" x2="130.8" y1="165.0" y2="162.0"/>
  <line stroke="rgb(35,181,221)" stroke-width="1" x1="109.2" x2="109.2" y1="165.0" y2="162.0"/>
  <line stroke="rgb(35,181,221)" stroke-width="1" x1="133.5" x2="136.5" y1="159.3" y2="159.3"/>
  <line stroke="rgb(35,181,221)" stroke-width="1" x1="133.5" x2="136.5" y1="137.7" y2="137.7"/>
  <line stroke="rgb(35,181,221)" stroke-width="1" x1="160.8" x2="160.8" y1="135.0" y2="132.0"/>
  <line stroke="rgb(35,181,221)" stroke-width="1" x1="139.2" x2="139.2" y1="135.0" y2="132.0"/>
  <path d="m 169.5 132.0 A 5.25 5.25 0 0,1 190.5 132.0" fill="none" stroke="rgb(35,181,221)"/>
  <text fill="black" font-family="Courier New" font-size="30%" x="180.0" y="118.5">(0,5,3)</text>
  <path d="m 193.5 159.3 A 24.30000000000001 24.30000000000001 0 0,1 169.2 135.0" fill="none" stroke="rgb(35,181,221)"/>
  <path d="m 193.5 137.7 A 2.6999999999999886 2.6999999999999886 0 0,1 190.8 135.0" fill="none" stroke="rgb(35,181,221)"/>
  <text fill="black" font-family="Courier New" font-size="30%" x="180.0" y="148.5">(1,5,4)</text>
  <path d="m 196.5 159.3 A 2.6999999999999886 2.6999999999999886 0 0,1 199.2 162.0" fill="none" stroke="rgb(35,181,221)"/>
  <path d="m 196.5 137.7 A 24.30000000000001 24.30000000000001 0 0,1 220.8 162.0" fill="none" stroke="rgb(35,181,221)"/>
  <text fill="black" font-family="Courier New" font-size="30%" x="210.0" y="148.5">(2,6,4)</text>
  <path d="m 223.5 189.3 A 24.30000000000001 24.30000000000001 0 0,1 199.2 165.0" fill="none" stroke="rgb(35,181,221)"/>
  <path d="m 223.5 167.7 A 2.6999999999999886 2.6999999999999886 0 0,1 220.8 165.0" fill="none" stroke="rgb(35,181,221)"/>
  <text fill="black" font-family="Courier New" font-size="30%" x="210.0" y="178.5">(3,6,5)</text>
  <path d="m 250.8 165.0 A 24.30000000000001 24.30000000000001 0 0,1 226.5 189.3" fill="none" stroke="rgb(35,181,221)"/>
  <path d="m 229.2 165.0 A 2.6999999999999886 2.6999999999999886 0 0,1 226.5 167.7" fill="none" stroke="rgb(35,181,221)"/>
  <text fill="black" font-family="Courier New" font-size="30%" x="240.0" y="178.5">(4,7,5)</text>
  <rect fill="none" height="27.0" stroke="rgb(35,181,221)" width="24.0" x="228.0" y="135.0"/>
  <text fill="black" font-family="Courier New" font-size="30%" x="240.0" y="148.5">(5,7,4)</text>
  <path d="m 250.8 132.0 A 2.6999999999999886 2.6999999999999886 0 0,1 253.5 129.3" fill="none" stroke="rgb(35,181,221)"/>
  <path d="m 229.2 132.0 A 24.30000000000001 24.30000000000001 0 0,1 253.5 107.7" fill="none" stroke="rgb(35,181,221)"/>
  <text fill="black" font-family="Courier New" font-size="30%" x="240.0" y="118.5">(6,7,3)</text>
  <path d="m 256.5 129.3 A 2.6999999999999886 2.6999999999999886 0 0,1 259.2 132.0" fill="none" stroke="rgb(35,181,221)"/>
  <path d="m 256.5 107.7 A 24.30000000000001 24.30000000000001 0 0,1 280.8 132.0" fill="none" stroke="rgb(35,181,221)"/>
  <text fill="black" font-family="Courier New" font-size="30%" x="270.0" y="118.5">(7,8,3)</text>
  <rect fill="none" height="27.0" stroke="rgb(35,181,221)" width="24.0" x="258.0" y="135.0"/>
  <text fill="black" font-family="Courier New" font-size="30%" x="270.0" y="148.5">(8,8,4)</text>
  <rect fill="none" height="27.0" stroke="rgb(35,181,221)" width="24.0" x="258.0" y="165.0"/>
  <text fill="black" font-family="Courier New" font-size="30%" x="270.0" y="178.5">(9,8,5)</text>
  <path d="m 283.5 219.3 A 24.30000000000001 24.30000000000001 0 0,1 259.2 195.0" fill="none" stroke="rgb(35,181,221)"/>
  <path d="m 283.5 197.7 A 2.6999999999999886 2.6999999999999886 0 0,1 280.8 195.0" fill="none" stroke="rgb(35,181,221)"/>
  <text fill="black" font-family="Courier New" font-size="30%" x="270.0" y="208.5">(10,8,6)</text>
  <path d="m 316.5 219.3 A 2.6999999999999886 2.6999999999999886 0 0,1 319.2 222.0" fill="none" stroke="rgb(35,181,221)"/>
  <path d="m 316.5 197.7 A 24.30000000000001 24.30000000000001 0 0,1 340.8 222.0" fill="none" stroke="rgb(35,181,221)"/>
  <text fill="black" font-family="Courier New" font-size="30%" x="330.0" y="208.5">(12,10,6)</text>
  <path d="m 319.2 225.0 A 2.6999999999999886 2.6999999999999886 0 0,1 316.5 227.7" fill="none" stroke="rgb(35,181,221)"/>
  <path d="m 340.8 225.0 A 24.30000000000001 24.30000000000001 0 0,1 316.5 249.3" fill="none" stroke="rgb(35,181,221)"/>
  <text fill="black" font-family="Courier New" font-size="30%" x="330.0" y="238.5">(13,10,7)</text>
  <rect fill="none" height="24.0" stroke="rgb(35,181,221)" width="27.0" x="256.5" y="226.5"/>
  <text fill="black" font-family="Courier New" font-size="30%" x="270.0" y="238.5">(15,8,7)</text>
  <rect fill="none" height="24.0" stroke="rgb(35,181,221)" width="27.0" x="226.5" y="226.5"/>
  <text fill="black" font-family="Courier New" font-size="30%" x="240.0" y="238.5">(16,7,7)</text>
  <rect fill="none" height="24.0" stroke="rgb(35,181,221)" width="27.0" x="196.5" y="226.5"/>
  <text fill="black" font-family="Courier New" font-size="30%" x="210.0" y="238.5">(17,6,7)</text>
  <rect fill="none" height="24.0" stroke="rgb(35,181,221)" width="27.0" x="166.5" y="226.5"/>
  <text fill="black" font-family="Courier New" font-size="30%" x="180.0" y="238.5">(18,5,7)</text>
  <path d="m 163.5 227.7 A 2.6999999999999886 2.6999999999999886 0 0,1 160.8 225.0" fill="none" stroke="rgb(35,181,221)"/>
  <path d="m 163.5 249.3 A 24.30000000000001 24.30000000000001 0 0,1 139.2 225.0" fill="none" stroke="rgb(35,181,221)"/>
  <text fill="black" font-family="Courier New" font-size="30%" x="150.0" y="238.5">(19,4,7)</text>
  <path d="m 136.5 197.7 A 24.30000000000001 24.30000000000001 0 0,1 160.8 222.0" fill="none" stroke="rgb(35,181,221)"/>
  <path d="m 136.5 219.3 A 2.6999999999999886 2.6999999999999886 0 0,1 139.2 222.0" fill="none" stroke="rgb(35,181,221)"/>
  <text fill="black" font-family="Courier New" font-size="30%" x="150.0" y="208.5">(20,4,6)</text>
  <rect fill="none" height="24.0" stroke="rgb(35,181,221)" width="27.0" x="106.5" y="196.5"/>
  <text fill="black" font-family="Courier New" font-size="30%" x="120.0" y="208.5">(21,3,6)</text>
  <path d="m 79.2 222.0 A 24.30000000000001 24.30000000000001 0 0,1 103.5 197.7" fill="none" stroke="rgb(35,181,221)"/>
  <path d="m 100.8 222.0 A 2.700000000000003 2.700000000000003 0 0,1 103.5 219.3" fill="none" stroke="rgb(35,181,221)"/>
  <text fill="black" font-family="Courier New" font-size="30%" x="90.0" y="208.5">(22,2,6)</text>
  <path d="m 103.5 249.3 A 24.30000000000001 24.30000000000001 0 0,1 79.2 225.0" fill="none" stroke="rgb(35,181,221)"/>
  <path d="m 103.5 227.7 A 2.700000000000003 2.700000000000003 0 0,1 100.8 225.0" fill="none" stroke="rgb(35,181,221)"/>
  <text fill="black" font-family="Courier New" font-size="30%" x="90.0" y="238.5">(23,2,7)</text>
  <path d="m 130.8 225.0 A 24.30000000000001 24.30000000000001 0 0,1 106.5 249.3" fill="none" stroke="rgb(35,181,221)"/>
  <path d="m 109.2 225.0 A 2.700000000000003 2.700000000000003 0 0,1 106.5 227.7" fill="none" stroke="rgb(35,181,221)"/>
  <text fill="black" font-family="Courier New" font-size="30%" x="120.0" y="238.5">(24,3,7)</text>
  <rect fill="none" height="27.0" stroke="rgb(35,181,221)" width="24.0" x="108.0" y="165.0"/>
  <text fill="black" font-family="Courier New" font-size="30%" x="120.0" y="178.5">(26,3,5)</text>
  <path d="m 130.8 162.0 A 2.6999999999999886 2.6999999999999886 0 0,1 133.5 159.3" fill="none" stroke="rgb(35,181,221)"/>
  <path d="m 109.2 162.0 A 24.30000000000001 24.30000000000001 0 0,1 133.5 137.7" fill="none" stroke="rgb(35,181,221)"/>
  <text fill="black" font-family="Courier New" font-size="30%" x="120.0" y="148.5">(27,3,4)</text>
  <path d="m 160.8 135.0 A 24.30000000000001 24.30000000000001 0 0,1 136.5 159.3" fill="none" stroke="rgb(35,181,221)"/>
  <path d="m 139.2 135.0 A 2.6999999999999886 2.6999999999999886 0 0,1 136.5 137.7" fill="none" stroke="rgb(35,181,221)"/>
  <text fill="black" font-family="Courier New" font-size="30%" x="150.0" y="148.5">(28,4,4)</text>
  <path d="m 139.5 132.0 A 5.25 5.25 0 0,1 160.5 132.0" fill="none" stroke="rgb(35,181,221)"/>
  <text fill="black" font-family="Courier New" font-size="30%" x="150.0" y="118.5">(29,4,3)</text>
  <line stroke="rgb(33,130,212)" stroke-width="1" x1="316.5" x2="313.5" y1="69.3" y2="69.3"/>
  <line stroke="rgb(33,130,212)" stroke-width="1" x1="316.5" x2="313.5" y1="47.7" y2="47.7"/>
  <line stroke="rgb(33,130,212)" stroke-width="1" x1="286.5" x2="283.5" y1="69.3" y2="69.3"/>
  <line stroke="rgb(33,130,212)" stroke-width="1" x1="286.5" x2="283.5" y1="47.7" y2="47.7"/>
  <line stroke="rgb(33,130,212)" stroke-width="1" x1="280.8" x2="280.8" y1="72.0" y2="75.0"/>
  <line stroke="rgb(33,130,212)" stroke-width="1" x1="259.2" x2="259.2" y1="72.0" y2="75.0"/>
  <line stroke="rgb(33,130,212)" stroke-width="1" x1="256.5" x2="253.5" y1="99.3" y2="99.3"/>
  <line stroke="rgb(33,130,212)" stroke-width="1" x1="256.5" x2="253.5" y1="77.7" y2="77.7"/>
  <line stroke="rgb(33,130,212)" stroke-width="1" x1="250.8" x2="250.8" y1="75.0" y2="72.0"/>
  <line stroke="rgb(33,130,212)" stroke-width="1" x1="229.2" x2="229.2" y1="75.0" y2="72.0"/>
  <line stroke="rgb(33,130,212)" stroke-width="1" x1="226.5" x2="223.5" y1="69.3" y2="69.3"/>
  <line stroke="rgb(33,130,212)" stroke-width="1" x1="226.5" x2="223.5" y1="47.7" y2="47.7"/>
  <line stroke="rgb(33,130,212)" stroke-width="1" x1="196.5" x2="193.5" y1="69.3" y2="69.3"/>
  <line stroke="rgb(33,130,212)" stroke-width="1" x1="196.5" x2="193.5" y1="47.7" y2="47.7"/>
  <line stroke="rgb(33,130,212)" stroke-width="1" x1="190.8" x2="190.8" y1="45.0" y2="42.0"/>
  <line stroke="rgb(33,130,212)" stroke-width="1" x1="169.2" x2="169.2" y1="45.0" y2="42.0"/>
  <line stroke="rgb(33,130,212)" stroke-width="1" x1="193.5" x2="196.5" y1="39.3" y2="39.3"/>
  <line stroke="rgb(33,130,212)" stroke-width="1" x1="193.5" x2="196.5" y1="17.700000000000003" y2="17.700000000000003"/>
  <line stroke="rgb(33,130,212)" stroke-width="1" x1="223.5" x2="226.5" y1="39.3" y2="39.3"/>
  <line stroke="rgb(33,130,212)" stroke-width="1" x1="223.5" x2="226.5" y1="17.700000000000003" y2="17.700000000000003"/>
  <line stroke="rgb(33,130,212)" stroke-width="1" x1="253.5" x2="256.5" y1="39.3" y2="39.3"/>
  <line stroke="rgb(33,130,212)" stroke-width="1" x1="253.5" x2="256.5" y1="17.700000000000003" y2="17.700000000000003"/>
  <line stroke="rgb(33,130,212)" stroke-width="1" x1="283.5" x2="286.5" y1="39.3" y2="39.3"/>
  <line stroke="rgb(33,130,212)" stroke-width="1" x1="283.5" x2="286.5" y1="17.700000000000003" y2="17.700000000000003"/>
  <line stroke="rgb(33,130,212)" stroke-width="1" x1="313.5" x2="316.5" y1="39.3" y2="39.3"/>
  <line stroke="rgb(33,130,212)" stroke-width="1" x1="313.5" x2="316.5" y1="17.700000000000003" y2="17.700000000000003"/>
  <line stroke="rgb(33,130,212)" stroke-width="1" x1="343.5" x2="346.5" y1="39.3" y2="39.3"/>
  <line stroke="rgb(33,130,212)" stroke-width="1" x1="343.5" x2="346.5" y1="17.700000000000003" y2="17.700000000000003"/>
  <line stroke="rgb(33,130,212)" stroke-width="1" x1="370.8" x2="370.8" y1="42.0" y2="45.0"/>
  <line stroke="rgb(33,130,212)" stroke-width="1" x1="349.2" x2="349.2" y1="42.0" y2="45.0"/>
  <line stroke="rgb(33,130,212)" stroke-width="1" x1="370.8" x2="370.8" y1="72.0" y2="75.0"/>
  <line stroke="rgb(33,130,212)" stroke-width="1" x1="349.2" x2="349.2" y1="72.0" y2="75.0"/>
  <line stroke="rgb(33,130,212)" stroke-width="1" x1="346.5" x2="343.5" y1="99.3" y2="99.3"/>
  <line stroke="rgb(33,130,212)" stroke-width="1" x1="346.5" x2="343.5" y1="77.7" y2="77.7"/>
  <line stroke="rgb(33,130,212)" stroke-width="1" x1="316.5" x2="313.5" y1="99.3" y2="99.3"/>
  <line stroke="rgb(33,130,212)" stroke-width="1" x1="316.5" x2="313.5" y1="77.7" y2="77.7"/>
  <line stroke="rgb(33,130,212)" stroke-width="1" x1="310.8" x2="310.8" y1="102.0" y2="105.0"/>
  <line stroke="rgb(33,130,212)" stroke-width="1" x1="289.2" x2="289.2" y1="102.0" y2="105.0"/>
  <line stroke="rgb(33,130,212)" stroke-width="1" x1="310.8" x2="310.8" y1="132.0" y2="135.0"/>
  <line stroke="rgb(33,130,212)" stroke-width="1" x1="289.2" x2="289.2" y1="132.0" y2="135.0"/>
  <line stroke="rgb(33,130,212)" stroke-width="1" x1="310.8" x2="310.8" y1="162.0" y2="165.0"/>
  <line stroke="rgb(33,130,212)" stroke-width="1" x1="289.2" x2="289.2" y1="162.0" y2="165.0"/>
  <line stroke="rgb(33,130,212)" stroke-width="1" x1="313.5" x2="316.5" y1="189.3" y2="189.3"/>
  <line stroke="rgb(33,130,212)" stroke-width="1" x1="313.5" x2="316.5" y1="167.7" y2="167.7"/>
  <line stroke="rgb(33,130,212)" stroke-width="1" x1="343.5" x2="346.5" y1="189.3" y2="189.3"/>
  <line stroke="rgb(33,130,212)" stroke-width="1" x1="343.5" x2="346.5" y1="167.7" y2="167.7"/>
  <line stroke="rgb(33,130,212)" stroke-width="1" x1="370.8" x2="370.8" y1="192.0" y2="195.0"/>
  <line stroke="rgb(33,130,212)" stroke-width="1" x1="349.2" x2="349.2" y1="192.0" y2="195.0"/>
  <line stroke="rgb(33,130,212)" stroke-width="1" x1="370.8" x2="370.8" y1="222.0" y2="225.0"/>
  <line stroke="rgb(33,130,212)" stroke-width="1" x1="349.2" x2="349.2" y1="222.0" y2="225.0"/>
  <line stroke="rgb(33,130,212)" stroke-width="1" x1="346.5" x2="343.5" y1="249.3" y2="249.3"/>
  <line stroke="rgb(33,130,212)" stroke-width="1" x1="346.5" x2="343.5" y1="227.7" y2="227.7"/>
  <line stroke="rgb(33,130,212)" stroke-width="1" x1="316.5" x2="313.5" y1="249.3" y2="249.3"/>
  <line stroke="rgb(33,130,212)" stroke-width="1" x1="316.5" x2="313.5" y1="227.7" y2="227.7"/>
  <line stroke="rgb(33,130,212)" stroke-width="1" x1="310.8" x2="310.8" y1="225.0" y2="222.0"/>
  <line stroke="rgb(33,130,212)" stroke-width="1" x1="289.2" x2="289.2" y1="225.0" y2="222.0"/>
  <line stroke="rgb(33,130,212)" stroke-width="1" x1="310.8" x2="310.8" y1="195.0" y2="192.0"/>
  <line stroke="rgb(33,130,212)" stroke-width="1" x1="289.2" x2="289.2" y1="195.0" y2="192.0"/>
  <rect fill="none" height="24.0" stroke="rgb(33,130,212)" width="27.0" x="286.5" y="46.5"/>
  <text fill="black" font-family="Courier New" font-size="30%" x="300.0" y="58.5">(1,9,1)</text>
  <path d="m 259.2 72.0 A 24.30000000000001 24.30000000000001 0 0,1 283.5 47.7" fill="none" stroke="rgb(33,130,212)"/>
  <path d="m 280.8 72.0 A 2.700000000000003 2.700000000000003 0 0,1 283.5 69.3" fill="none" stroke="rgb(33,130,212)"/>
  <text fill="black" font-family="Courier New" font-size="30%" x="270.0" y="58.5">(2,8,1)</text>
  <path d="m 259.2 75.0 A 2.700000000000003 2.700000000000003 0 0,1 256.5 77.7" fill="none" stroke="rgb(33,130,212)"/>
  <path d="m 280.8 75.0 A 24.30000000000001 24.30000000000001 0 0,1 256.5 99.3" fill="none" stroke="rgb(33,130,212)"/>
  <text fill="black" font-family="Courier New" font-size="30%" x="270.0" y="88.5">(3,8,2)</text>
  <path d="m 253.5 77.7 A 2.700000000000003 2.700000000000003 0 0,1 250.8 75.0" fill="none" stroke="rgb(33,130,212)"/>
  <path d="m 253.5 99.3 A 24.30000000000001 24.30000000000001 0 0,1 229.2 75.0" fill="none" stroke="rgb(33,130,212)"/>
  <text fill="black" font-family="Courier New" font-size="30%" x="240.0" y="88.5">(4,7,2)</text>
  <rect fill="none" height="24.0" stroke="rgb(33,130,212)" width="27.0" x="196.5" y="46.5"/>
  <text fill="black" font-family="Courier New" font-size="30%" x="210.0" y="58.5">(6,6,1)</text>
  <path d="m 193.5 47.7 A 2.700000000000003 2.700000000000003 0 0,1 190.8 45.0" fill="none" stroke="rgb(33,130,212)"/>
  <path d="m 193.5 69.3 A 24.30000000000001 24.30000000000001 0 0,1 169.2 45.0" fill="none" stroke="rgb(33,130,212)"/>
  <text fill="black" font-family="Courier New" font-size="30%" x="180.0" y="58.5">(7,5,1)</text>
  <path d="m 190.8 42.0 A 2.700000000000003 2.700000000000003 0 0,1 193.5 39.3" fill="none" stroke="rgb(33,130,212)"/>
  <path d="m 169.2 42.0 A 24.30000000000001 24.30000000000001 0 0,1 193.5 17.7" fill="none" stroke="rgb(33,130,212)"/>
  <text fill="black" font-family="Courier New" font-size="30%" x="180.0" y="28.5">(8,5,0)</text>
  <rect fill="none" height="24.0" stroke="rgb(33,130,212)" width="27.0" x="196.5" y="16.5"/>
  <text fill="black" font-family="Courier New" font-size="30%" x="210.0" y="28.5">(9,6,0)</text>
  <rect fill="none" height="24.0" stroke="rgb(33,130,212)" width="27.0" x="226.5" y="16.5"/>
  <text fill="black" font-family="Courier New" font-size="30%" x="240.0" y="28.5">(10,7,0)</text>
  <rect fill="none" height="24.0" stroke="rgb(33,130,212)" width="27.0" x="256.5" y="16.5"/>
  <text fill="black" font-family="Courier New" font-size="30%" x="270.0" y="28.5">(11,8,0)</text>
  <rect fill="none" height="24.0" stroke="rgb(33,130,212)" width="27.0" x="286.5" y="16.5"/>
  <text fill="black" font-family="Courier New" font-size="30%" x="300.0" y="28.5">(12,9,0)</text>
  <path d="m 346.5 39.3 A 2.700000000000003 2.700000000000003 0 0,1 349.2 42.0" fill="none" stroke="rgb(33,130,212)"/>
  <path d="m 346.5 17.7 A 24.30000000000001 24.30000000000001 0 0,1 370.8 42.0" fill="none" stroke="rgb(33,130,212)"/>
  <text fill="black" font-family="Courier New" font-size="30%" x="360.0" y="28.5">(14,11,0)</text>
  <rect fill="none" height="27.0" stroke="rgb(33,130,212)" width="24.0" x="348.0" y="45.0"/>
  <text fill="black" font-family="Courier New" font-size="30%" x="360.0" y="58.5">(15,11,1)</text>
  <path d="m 289.2 102.0 A 24.30000000000001 24.30000000000001 0 0,1 313.5 77.7" fill="none" stroke="rgb(33,130,212)"/>
  <path d="m 310.8 102.0 A 2.700000000000003 2.700000000000003 0 0,1 313.5 99.3" fill="none" stroke="rgb(33,130,212)"/>
  <text fill="black" font-family="Courier New" font-size="30%" x="300.0" y="88.5">(18,9,2)</text>
  <rect fill="none" height="27.0" stroke="rgb(33,130,212)" width="24.0" x="288.0" y="105.0"/>
  <text fill="black" font-family="Courier New" font-size="30%" x="300.0" y="118.5">(19,9,3)</text>
  <rect fill="none" height="27.0" stroke="rgb(33,130,212)" width="24.0" x="288.0" y="135.0"/>
  <text fill="black" font-family="Courier New" font-size="30%" x="300.0" y="148.5">(20,9,4)</text>
  <rect fill="none" height="24.0" stroke="rgb(33,130,212)" width="27.0" x="316.5" y="166.5"/>
  <text fill="black" font-family="Courier New" font-size="30%" x="330.0" y="178.5">(22,10,5)</text>
  <path d="m 346.5 189.3 A 2.6999999999999886 2.6999999999999886 0 0,1 349.2 192.0" fill="none" stroke="rgb(33,130,212)"/>
  <path d="m 346.5 167.7 A 24.30000000000001 24.30000000000001 0 0,1 370.8 192.0" fill="none" stroke="rgb(33,130,212)"/>
  <text fill="black" font-family="Courier New" font-size="30%" x="360.0" y="178.5">(23,11,5)</text>
  <rect fill="none" height="27.0" stroke="rgb(33,130,212)" width="24.0" x="348.0" y="195.0"/>
  <text fill="black" font-family="Courier New" font-size="30%" x="360.0" y="208.5">(24,11,6)</text>
  <path d="m 349.2 225.0 A 2.6999999999999886 2.6999999999999886 0 0,1 346.5 227.7" fill="none" stroke="rgb(33,130,212)"/>
  <path d="m 370.8 225.0 A 24.30000000000001 24.30000000000001 0 0,1 346.5 249.3" fill="none" stroke="rgb(33,130,212)"/>
  <text fill="black" font-family="Courier New" font-size="30%" x="360.0" y="238.5">(25,11,7)</text>
  <path d="m 313.5 227.7 A 2.6999999999999886 2.6999999999999886 0 0,1 310.8 225.0" fill="none" stroke="rgb(33,130,212)"/>
  <path d="m 313.5 249.3 A 24.30000000000001 24.30000000000001 0 0,1 289.2 225.0" fill="none" stroke="rgb(33,130,212)"/>
  <text fill="black" font-family="Courier New" font-size="30%" x="300.0" y="238.5">(27,9,7)</text>
  <rect fill="none" height="27.0" stroke="rgb(33,130,212)" width="24.0" x="288.0" y="195.0"/>
  <text fill="black" font-family="Courier New" font-size="30%" x="300.0" y="208.5">(28,9,6)</text>
  <path d="m 289.5 192.0 A 5.25 5.25 0 0,1 310.5 192.0" fill="none" stroke="rgb(33,130,212)"/>
  <text fill="black" font-family="Courier New" font-size="30%" x="300.0" y="178.5">(29,9,5)</text>
  <line stroke="rgb(83,48,54)" stroke-width="1" x1="253.5" x2="256.5" y1="69.3" y2="69.3"/>
  <line stroke="rgb(83,48,54)" stroke-width="1" x1="253.5" x2="256.5" y1="47.7" y2="47.7"/>
  <line stroke="rgb(83,48,54)" stroke-width="1" x1="280.8" x2="280.8" y1="45.0" y2="42.0"/>
  <line stroke="rgb(83,48,54)" stroke-width="1" x1="259.2" x2="259.2" y1="45.0" y2="42.0"/>
  <line stroke="rgb(83,48,54)" stroke-width="1" x1="313.5" x2="316.5" y1="39.3" y2="39.3"/>
  <line stroke="rgb(83,48,54)" stroke-width="1" x1="313.5" x2="316.5" y1="17.700000000000003" y2="17.700000000000003"/>
  <line stroke="rgb(83,48,54)" stroke-width="1" x1="340.8" x2="340.8" y1="42.0" y2="45.0"/>
  <line stroke="rgb(83,48,54)" stroke-width="1" x1="319.2" x2="319.2" y1="42.0" y2="45.0"/>
  <line stroke="rgb(83,48,54)" stroke-width="1" x1="340.8" x2="340.8" y1="72.0" y2="75.0"/>
  <line stroke="rgb(83,48,54)" stroke-width="1" x1="319.2" x2="319.2" y1="72.0" y2="75.0"/>
  <line stroke="rgb(83,48,54)" stroke-width="1" x1="340.8" x2="340.8" y1="102.0" y2="105.0"/>
  <line stroke="rgb(83,48,54)" stroke-width="1" x1="319.2" x2="319.2" y1="102.0" y2="105.0"/>
  <line stroke="rgb(83,48,54)" stroke-width="1" x1="340.8" x2="340.8" y1="132.0" y2="135.0"/>
  <line stroke="rgb(83,48,54)" stroke-width="1" x1="319.2" x2="319.2" y1="132.0" y2="135.0"/>
  <line stroke="rgb(83,48,54)" stroke-width="1" x1="343.5" x2="346.5" y1="159.3" y2="159.3"/>
  <line stroke="rgb(83,48,54)" stroke-width="1" x1="343.5" x2="346.5" y1="137.7" y2="137.7"/>
  <line stroke="rgb(83,48,54)" stroke-width="1" x1="370.8" x2="370.8" y1="135.0" y2="132.0"/>
  <line stroke="rgb(83,48,54)" stroke-width="1" x1="349.2" x2="349.2" y1="135.0" y2="132.0"/>
  <line stroke="rgb(83,48,54)" stroke-width="1" x1="370.8" x2="370.8" y1="105.0" y2="102.0"/>
  <line stroke="rgb(83,48,54)" stroke-width="1" x1="349.2" x2="349.2" y1="105.0" y2="102.0"/>
  <line stroke="rgb(83,48,54)" stroke-width="1" x1="370.8" x2="370.8" y1="75.0" y2="72.0"/>
  <line stroke="rgb(83,48,54)" stroke-width="1" x1="349.2" x2="349.2" y1="75.0" y2="72.0"/>
  <path d="m 250.5 72.0 A 5.25 5.25 0 0,1 250.5 45.0" fill="none" stroke="rgb(83,48,54)"/>
  <text fill="black" font-family="Courier New" font-size="30%" x="240.0" y="58.5">(0,7,1)</text>
  <path d="m 316.5 39.3 A 2.700000000000003 2.700000000000003 0 0,1 319.2 42.0" fill="none" stroke="rgb(83,48,54)"/>
  <path d="m 316.5 17.7 A 24.30000000000001 24.30000000000001 0 0,1 340.8 42.0" fill="none" stroke="rgb(83,48,54)"/>
  <text fill="black" font-family="Courier New" font-size="30%" x="330.0" y="28.5">(4,10,0)</text>
  <rect fill="none" height="27.0" stroke="rgb(83,48,54)" width="24.0" x="318.0" y="45.0"/>
  <text fill="black" font-family="Courier New" font-size="30%" x="330.0" y="58.5">(5,10,1)</text>
  <rect fill="none" height="27.0" stroke="rgb(83,48,54)" width="24.0" x="318.0" y="75.0"/>
  <text fill="black" font-family="Courier New" font-size="30%" x="330.0" y="88.5">(6,10,2)</text>
  <rect fill="none" height="27.0" stroke="rgb(83,48,54)" width="24.0" x="318.0" y="105.0"/>
  <text fill="black" font-family="Courier New" font-size="30%" x="330.0" y="118.5">(7,10,3)</text>
  <path d="m 343.5 159.3 A 24.30000000000001 24.30000000000001 0 0,1 319.2 135.0" fill="none" stroke="rgb(83,48,54)"/>
  <path d="m 343.5 137.7 A 2.6999999999999886 2.6999999999999886 0 0,1 340.8 135.0" fill="none" stroke="rgb(83,48,54)"/>
  <text fill="black" font-family="Courier New" font-size="30%" x="330.0" y="148.5">(8,10,4)</text>
  <path d="m 370.8 135.0 A 24.30000000000001 24.30000000000001 0 0,1 346.5 159.3" fill="none" stroke="rgb(83,48,54)"/>
  <path d="m 349.2 135.0 A 2.6999999999999886 2.6999999999999886 0 0,1 346.5 137.7" fill="none" stroke="rgb(83,48,54)"/>
  <text fill="black" font-family="Courier New" font-size="30%" x="360.0" y="148.5">(9,11,4)</text>
  <rect fill="none" height="27.0" stroke="rgb(83,48,54)" width="24.0" x="348.0" y="105.0"/>
  <text fill="black" font-family="Courier New" font-size="30%" x="360.0" y="118.5">(10,11,3)</text>
  <rect fill="none" height="27.0" stroke="rgb(83,48,54)" width="24.0" x="348.0" y="75.0"/>
  <text fill="black" font-family="Courier New" font-size="30%" x="360.0" y="88.5">(11,11,2)</text>
  <line stroke="rgb(32,253,156)" stroke-width="1" x1="223.5" x2="226.5" y1="219.3" y2="219.3"/>
  <line stroke="rgb(32,253,156)" stroke-width="1" x1="223.5" x2="226.5" y1="197.7" y2="197.7"/>
  <line stroke="rgb(32,253,156)" stroke-width="1" x1="253.5" x2="256.5" y1="219.3" y2="219.3"/>
  <line stroke="rgb(32,253,156)" stroke-width="1" x1="253.5" x2="256.5" y1="197.7" y2="197.7"/>
  <line stroke="rgb(32,253,156)" stroke-width="1" x1="256.5" x2="253.5" y1="189.3" y2="189.3"/>
  <line stroke="rgb(32,253,156)" stroke-width="1" x1="256.5" x2="253.5" y1="167.7" y2="167.7"/>
  <line stroke="rgb(32,253,156)" stroke-width="1" x1="196.5" x2="193.5" y1="189.3" y2="189.3"/>
  <line stroke="rgb(32,253,156)" stroke-width="1" x1="196.5" x2="193.5" y1="167.7" y2="167.7"/>
  <line stroke="rgb(32,253,156)" stroke-width="1" x1="166.5" x2="163.5" y1="189.3" y2="189.3"/>
  <line stroke="rgb(32,253,156)" stroke-width="1" x1="166.5" x2="163.5" y1="167.7" y2="167.7"/>
  <line stroke="rgb(32,253,156)" stroke-width="1" x1="160.8" x2="160.8" y1="165.0" y2="162.0"/>
  <line stroke="rgb(32,253,156)" stroke-width="1" x1="139.2" x2="139.2" y1="165.0" y2="162.0"/>
  <line stroke="rgb(32,253,156)" stroke-width="1" x1="136.5" x2="133.5" y1="129.3" y2="129.3"/>
  <line stroke="rgb(32,253,156)" stroke-width="1" x1="136.5" x2="133.5" y1="107.7" y2="107.7"/>
  <line stroke="rgb(32,253,156)" stroke-width="1" x1="130.8" x2="130.8" y1="105.0" y2="102.0"/>
  <line stroke="rgb(32,253,156)" stroke-width="1" x1="109.2" x2="109.2" y1="105.0" y2="102.0"/>
  <line stroke="rgb(32,253,156)" stroke-width="1" x1="106.5" x2="103.5" y1="99.3" y2="99.3"/>
  <line stroke="rgb(32,253,156)" stroke-width="1" x1="106.5" x2="103.5" y1="77.7" y2="77.7"/>
  <line stroke="rgb(32,253,156)" stroke-width="1" x1="100.8" x2="100.8" y1="102.0" y2="105.0"/>
  <line stroke="rgb(32,253,156)" stroke-width="1" x1="79.2" x2="79.2" y1="102.0" y2="105.0"/>
  <line stroke="rgb(32,253,156)" stroke-width="1" x1="76.5" x2="73.5" y1="129.3" y2="129.3"/>
  <line stroke="rgb(32,253,156)" stroke-width="1" x1="76.5" x2="73.5" y1="107.7" y2="107.7"/>
  <line stroke="rgb(32,253,156)" stroke-width="1" x1="70.8" x2="70.8" y1="132.0" y2="135.0"/>
  <line stroke="rgb(32,253,156)" stroke-width="1" x1="49.2" x2="49.2" y1="132.0" y2="135.0"/>
  <line stroke="rgb(32,253,156)" stroke-width="1" x1="46.5" x2="43.5" y1="159.3" y2="159.3"/>
  <line stroke="rgb(32,253,156)" stroke-width="1" x1="46.5" x2="43.5" y1="137.7" y2="137.7"/>
  <line stroke="rgb(32,253,156)" stroke-width="1" x1="40.8" x2="40.8" y1="135.0" y2="132.0"/>
  <line stroke="rgb(32,253,156)" stroke-width="1" x1="19.200000000000003" x2="19.200000000000003" y1="135.0" y2="132.0"/>
  <line stroke="rgb(32,253,156)" stroke-width="1" x1="40.8" x2="40.8" y1="105.0" y2="102.0"/>
  <line stroke="rgb(32,253,156)" stroke-width="1" x1="19.200000000000003" x2="19.200000000000003" y1="105.0" y2="102.0"/>
  <line stroke="rgb(32,253,156)" stroke-width="1" x1="43.5" x2="46.5" y1="99.3" y2="99.3"/>
  <line stroke="rgb(32,253,156)" stroke-width="1" x1="43.5" x2="46.5" y1="77.7" y2="77.7"/>
  <line stroke="rgb(32,253,156)" stroke-width="1" x1="70.8" x2="70.8" y1="75.0" y2="72.0"/>
  <line stroke="rgb(32,253,156)" stroke-width="1" x1="49.2" x2="49.2" y1="75.0" y2="72.0"/>
  <line stroke="rgb(32,253,156)" stroke-width="1" x1="46.5" x2="43.5" y1="69.3" y2="69.3"/>
  <line stroke="rgb(32,253,156)" stroke-width="1" x1="46.5" x2="43.5" y1="47.7" y2="47.7"/>
  <line stroke="rgb(32,253,156)" stroke-width="1" x1="40.8" x2="40.8" y1="45.0" y2="42.0"/>
  <line stroke="rgb(32,253,156)" stroke-width="1" x1="19.200000000000003" x2="19.200000000000003" y1="45.0" y2="42.0"/>
  <line stroke="rgb(32,253,156)" stroke-width="1" x1="43.5" x2="46.5" y1="39.3" y2="39.3"/>
  <line stroke="rgb(32,253,156)" stroke-width="1" x1="43.5" x2="46.5" y1="17.700000000000003" y2="17.700000000000003"/>
  <line stroke="rgb(32,253,156)" stroke-width="1" x1="73.5" x2="76.5" y1="39.3" y2="39.3"/>
  <line stroke="rgb(32,253,156)" stroke-width="1" x1="73.5" x2="76.5" y1="17.700000000000003" y2="17.700000000000003"/>
  <line stroke="rgb(32,253,156)" stroke-width="1" x1="100.8" x2="100.8" y1="42.0" y2="45.0"/>
  <line stroke="rgb(32,253,156)" stroke-width="1" x1="79.2" x2="79.2" y1="42.0" y2="45.0"/>
  <line stroke="rgb(32,253,156)" stroke-width="1" x1="103.5" x2="106.5" y1="69.3" y2="69.3"/>
  <line stroke="rgb(32,253,156)" stroke-width="1" x1="103.5" x2="106.5" y1="47.7" y2="47.7"/>
  <line stroke="rgb(32,253,156)" stroke-width="1" x1="130.8" x2="130.8" y1="45.0" y2="42.0"/>
  <line stroke="rgb(32,253,156)" stroke-width="1" x1="109.2" x2="109.2" y1="45.0" y2="42.0"/>
  <line stroke="rgb(32,253,156)" stroke-width="1" x1="133.5" x2="136.5" y1="39.3" y2="39.3"/>
  <line stroke="rgb(32,253,156)" stroke-width="1" x1="133.5" x2="136.5" y1="17.700000000000003" y2="17.700000000000003"/>
  <line stroke="rgb(32,253,156)" stroke-width="1" x1="160.8" x2="160.8" y1="42.0" y2="45.0"/>
  <line stroke="rgb(32,253,156)" stroke-width="1" x1="139.2" x2="139.2" y1="42.0" y2="45.0"/>
  <path d="m 220.5 222.0 A 5.25 5.25 0 0,1 220.5 195.0" fill="none" stroke="rgb(32,253,156)"/>
  <text fill="black" font-family="Courier New" font-size="30%" x="210.0" y="208.5">(0,6,6)</text>
  <rect fill="none" height="24.0" stroke="rgb(32,253,156)" width="27.0" x="226.5" y="196.5"/>
  <text fill="black" font-family="Courier New" font-size="30%" x="240.0" y="208.5">(1,7,6)</text>
  <rect fill="none" height="24.0" stroke="rgb(32,253,156)" width="27.0" x="166.5" y="166.5"/>
  <text fill="black" font-family="Courier New" font-size="30%" x="180.0" y="178.5">(6,5,5)</text>
  <path d="m 163.5 167.7 A 2.6999999999999886 2.6999999999999886 0 0,1 160.8 165.0" fill="none" stroke="rgb(32,253,156)"/>
  <path d="m 163.5 189.3 A 24.30000000000001 24.30000000000001 0 0,1 139.2 165.0" fill="none" stroke="rgb(32,253,156)"/>
  <text fill="black" font-family="Courier New" font-size="30%" x="150.0" y="178.5">(7,4,5)</text>
  <path d="m 133.5 107.7 A 2.700000000000003 2.700000000000003 0 0,1 130.8 105.0" fill="none" stroke="rgb(32,253,156)"/>
  <path d="m 133.5 129.3 A 24.30000000000001 24.30000000000001 0 0,1 109.2 105.0" fill="none" stroke="rgb(32,253,156)"/>
  <text fill="black" font-family="Courier New" font-size="30%" x="120.0" y="118.5">(10,3,3)</text>
  <path d="m 106.5 77.7 A 24.30000000000001 24.30000000000001 0 0,1 130.8 102.0" fill="none" stroke="rgb(32,253,156)"/>
  <path d="m 106.5 99.3 A 2.700000000000003 2.700000000000003 0 0,1 109.2 102.0" fill="none" stroke="rgb(32,253,156)"/>
  <text fill="black" font-family="Courier New" font-size="30%" x="120.0" y="88.5">(11,3,2)</text>
  <path d="m 79.2 102.0 A 24.299999999999997 24.299999999999997 0 0,1 103.5 77.7" fill="none" stroke="rgb(32,253,156)"/>
  <path d="m 100.8 102.0 A 2.700000000000003 2.700000000000003 0 0,1 103.5 99.3" fill="none" stroke="rgb(32,253,156)"/>
  <text fill="black" font-family="Courier New" font-size="30%" x="90.0" y="88.5">(12,2,2)</text>
  <path d="m 79.2 105.0 A 2.700000000000003 2.700000000000003 0 0,1 76.5 107.7" fill="none" stroke="rgb(32,253,156)"/>
  <path d="m 100.8 105.0 A 24.30000000000001 24.30000000000001 0 0,1 76.5 129.3" fill="none" stroke="rgb(32,253,156)"/>
  <text fill="black" font-family="Courier New" font-size="30%" x="90.0" y="118.5">(13,2,3)</text>
  <path d="m 49.2 132.0 A 24.299999999999997 24.299999999999997 0 0,1 73.5 107.7" fill="none" stroke="rgb(32,253,156)"/>
  <path d="m 70.8 132.0 A 2.700000000000003 2.700000000000003 0 0,1 73.5 129.3" fill="none" stroke="rgb(32,253,156)"/>
  <text fill="black" font-family="Courier New" font-size="30%" x="60.0" y="118.5">(14,1,3)</text>
  <path d="m 49.2 135.0 A 2.700000000000003 2.700000000000003 0 0,1 46.5 137.7" fill="none" stroke="rgb(32,253,156)"/>
  <path d="m 70.8 135.0 A 24.30000000000001 24.30000000000001 0 0,1 46.5 159.3" fill="none" stroke="rgb(32,253,156)"/>
  <text fill="black" font-family="Courier New" font-size="30%" x="60.0" y="148.5">(15,1,4)</text>
  <path d="m 43.5 137.7 A 2.700000000000003 2.700000000000003 0 0,1 40.8 135.0" fill="none" stroke="rgb(32,253,156)"/>
  <path d="m 43.5 159.3 A 24.30000000000001 24.30000000000001 0 0,1 19.2 135.0" fill="none" stroke="rgb(32,253,156)"/>
  <text fill="black" font-family="Courier New" font-size="30%" x="30.0" y="148.5">(16,0,4)</text>
  <rect fill="none" height="27.0" stroke="rgb(32,253,156)" width="24.0" x="18.0" y="105.0"/>
  <text fill="black" font-family="Courier New" font-size="30%" x="30.0" y="118.5">(17,0,3)</text>
  <path d="m 40.8 102.0 A 2.700000000000003 2.700000000000003 0 0,1 43.5 99.3" fill="none" stroke="rgb(32,253,156)"/>
  <path d="m 19.2 102.0 A 24.3 24.3 0 0,1 43.5 77.7" fill="none" stroke="rgb(32,253,156)"/>
  <text fill="black" font-family="Courier New" font-size="30%" x="30.0" y="88.5">(18,0,2)</text>
  <path d="m 70.8 75.0 A 24.299999999999997 24.299999999999997 0 0,1 46.5 99.3" fill="none" stroke="rgb(32,253,156)"/>
  <path d="m 49.2 75.0 A 2.700000000000003 2.700000000000003 0 0,1 46.5 77.7" fill="none" stroke="rgb(32,253,156)"/>
  <text fill="black" font-family="Courier New" font-size="30%" x="60.0" y="88.5">(19,1,2)</text>
  <path d="m 46.5 47.7 A 24.299999999999997 24.299999999999997 0 0,1 70.8 72.0" fill="none" stroke="rgb(32,253,156)"/>
  <path d="m 46.5 69.3 A 2.700000000000003 2.700000000000003 0 0,1 49.2 72.0" fill="none" stroke="rgb(32,253,156)"/>
  <text fill="black" font-family="Courier New" font-size="30%" x="60.0" y="58.5">(20,1,1)</text>
  <path d="m 43.5 47.7 A 2.700000000000003 2.700000000000003 0 0,1 40.8 45.0" fill="none" stroke="rgb(32,253,156)"/>
  <path d="m 43.5 69.3 A 24.3 24.3 0 0,1 19.2 45.0" fill="none" stroke="rgb(32,253,156)"/>
  <text fill="black" font-family="Courier New" font-size="30%" x="30.0" y="58.5">(21,0,1)</text>
  <path d="m 40.8 42.0 A 2.700000000000003 2.700000000000003 0 0,1 43.5 39.3" fill="none" stroke="rgb(32,253,156)"/>
  <path d="m 19.2 42.0 A 24.3 24.3 0 0,1 43.5 17.7" fill="none" stroke="rgb(32,253,156)"/>
  <text fill="black" font-family="Courier New" font-size="30%" x="30.0" y="28.5">(22,0,0)</text>
  <rect fill="none" height="24.0" stroke="rgb(32,253,156)" width="27.0" x="46.5" y="16.5"/>
  <text fill="black" font-family="Courier New" font-size="30%" x="60.0" y="28.5">(23,1,0)</text>
  <path d="m 76.5 39.3 A 2.700000000000003 2.700000000000003 0 0,1 79.2 42.0" fill="none" stroke="rgb(32,253,156)"/>
  <path d="m 76.5 17.7 A 24.3 24.3 0 0,1 100.8 42.0" fill="none" stroke="rgb(32,253,156)"/>
  <text fill="black" font-family="Courier New" font-size="30%" x="90.0" y="28.5">(24,2,0)</text>
  <path d="m 103.5 69.3 A 24.299999999999997 24.299999999999997 0 0,1 79.2 45.0" fill="none" stroke="rgb(32,253,156)"/>
  <path d="m 103.5 47.7 A 2.700000000000003 2.700000000000003 0 0,1 100.8 45.0" fill="none" stroke="rgb(32,253,156)"/>
  <text fill="black" font-family="Courier New" font-size="30%" x="90.0" y="58.5">(25,2,1)</text>
  <path d="m 130.8 45.0 A 24.30000000000001 24.30000000000001 0 0,1 106.5 69.3" fill="none" stroke="rgb(32,253,156)"/>
  <path d="m 109.2 45.0 A 2.700000000000003 2.700000000000003 0 0,1 106.5 47.7" fill="none" stroke="rgb(32,253,156)"/>
  <text fill="black" font-family="Courier New" font-size="30%" x="120.0" y="58.5">(26,3,1)</text>
  <path d="m 130.8 42.0 A 2.700000000000003 2.700000000000003 0 0,1 133.5 39.3" fill="none" stroke="rgb(32,253,156)"/>
  <path d="m 109.2 42.0 A 24.3 24.3 0 0,1 133.5 17.7" fill="none" stroke="rgb(32,253,156)"/>
  <text fill="black" font-family="Courier New" font-size="30%" x="120.0" y="28.5">(27,3,0)</text>
  <path d="m 136.5 39.3 A 2.700000000000003 2.700000000000003 0 0,1 139.2 42.0" fill="none" stroke="rgb(32,253,156)"/>
  <path d="m 136.5 17.7 A 24.30000000000001 24.30000000000001 0 0,1 160.8 42.0" fill="none" stroke="rgb(32,253,156)"/>
  <text fill="black" font-family="Courier New" font-size="30%" x="150.0" y="28.5">(28,4,0)</text>
  <path d="m 160.5 45.0 A 5.25 5.25 0 0,1 139.5 45.0" fill="none" stroke="rgb(32,253,156)"/>
  <text fill="black" font-family="Courier New" font-size="30%" x="150.0" y="58.5">(29,4,1)</text>
</svg>
