<?xml version="1.0" encoding="utf-8" ?>
<svg xmlns="http://www.w3.org/2000/svg" xmlns:ev="http://www.w3.org/2001/xml-events" xmlns:xlink="http://www.w3.org/1999/xlink" baseProfile="full" height="297mm" version="1.1" viewBox="0,0,420,297" width="420mm">
  <defs/>
  <rect fill="rgb(186,31,120)" fill-opacity="0.2" height="12.0" width="15.0" x="187.5" y="22.5"/>
  <rect fill="rgb(186,31,120)" fill-opacity="0.22666666666666668" height="12.0" width="15.0" x="217.5" y="22.5"/>
  <rect fill="rgb(186,31,120)" fill-opacity="0.25333333333333335" height="12.0" width="15.0" x="217.5" y="22.5"/>
  <rect fill="rgb(186,31,120)" fill-opacity="0.28" height="15.0" width="12.0" x="204.0" y="36.0"/>
  <rect fill="rgb(186,31,120)" fill-opacity="0.3066666666666667" height="12.0" width="15.0" x="187.5" y="52.5"/>
  <rect fill="rgb(186,31,120)" fill-opacity="0.33333333333333337" height="15.0" width="12.0" x="174.0" y="36.0"/>
  <rect fill="rgb(186,31,120)" fill-opacity="0.36000000000000004" height="15.0" width="12.0" x="174.0" y="36.0"/>
  <rect fill="rgb(186,31,120)" fill-opacity="0.3866666666666667" height="15.0" width="12.0" x="174.0" y="66.0"/>
  <rect fill="rgb(186,31,120)" fill-opacity="0.41333333333333333" height="12.0" width="15.0" x="187.5" y="82.5"/>
  <rect fill="rgb(186,31,120)" fill-opacity="0.44" height="12.0" width="15.0" x="217.5" y="82.5"/>
  <rect fill="rgb(186,31,120)" fill-opacity="0.4666666666666667" height="12.0" width="15.0" x="247.5" y="82.5"/>
  <rect fill="rgb(186,31,120)" fill-opacity="0.49333333333333335" height="15.0" width="12.0" x="264.0" y="96.0"/>
  <rect fill="rgb(186,31,120)" fill-opacity="0.52" height="15.0" width="12.0" x="264.0" y="126.0"/>
  <rect fill="rgb(186,31,120)" fill-opacity="0.5466666666666666" height="15.0" width="12.0" x="264.0" y="126.0"/>
  <rect fill="rgb(186,31,120)" fill-opacity="0.5733333333333334" height="12.0" width="15.0" x="247.5" y="112.5"/>
  <rect fill="rgb(186,31,120)" fill-opacity="0.6000000000000001" height="15.0" width="12.0" x="234.0" y="126.0"/>
  <rect fill="rgb(186,31,120)" fill-opacity="0.6266666666666667" height="15.0" width="12.0" x="234.0" y="156.0"/>
  <rect fill="rgb(186,31,120)" fill-opacity="0.6533333333333333" height="12.0" width="15.0" x="247.5" y="172.5"/>
  <rect fill="rgb(186,31,120)" fill-opacity="0.6799999999999999" height="12.0" width="15.0" x="277.5" y="172.5"/>
  <rect fill="rgb(186,31,120)" fill-opacity="0.7066666666666668" height="15.0" width="12.0" x="294.0" y="186.0"/>
  <rect fill="rgb(186,31,120)" fill-opacity="0.7333333333333334" height="12.0" width="15.0" x="277.5" y="202.5"/>
  <rect fill="rgb(186,31,120)" fill-opacity="0.76" height="15.0" width="12.0" x="264.0" y="186.0"/>
  <rect fill="rgb(186,31,120)" fill-opacity="0.7866666666666666" height="15.0" width="12.0" x="264.0" y="156.0"/>
  <rect fill="rgb(186,31,120)" fill-opacity="0.8133333333333335" height="12.0" width="15.0" x="247.5" y="142.5"/>
  <rect fill="rgb(186,31,120)" fill-opacity="0.8400000000000001" height="12.0" width="15.0" x="217.5" y="142.5"/>
  <rect fill="rgb(186,31,120)" fill-opacity="0.8666666666666667" height="12.0" width="15.0" x="187.5" y="142.5"/>
  <rect fill="rgb(186,31,120)" fill-opacity="0.8933333333333333" height="12.0" width="15.0" x="157.5" y="142.5"/>
  <rect fill="rgb(186,31,120)" fill-opacity="0.9200000000000002" height="15.0" width="12.0" x="144.0" y="156.0"/>
  <rect fill="rgb(186,31,120)" fill-opacity="0.9466666666666668" height="12.0" width="15.0" x="157.5" y="172.5"/>
  <rect fill="rgb(186,31,120)" fill-opacity="0.2" height="12.0" width="9.0" x="205.5" y="22.5"/>
  <rect fill="rgb(186,31,120)" fill-opacity="0.22666666666666668" height="12.0" width="0.0" x="235.5" y="22.5"/>
  <rect fill="rgb(186,31,120)" fill-opacity="0.33333333333333337" height="12.0" width="0.0" x="180.0" y="27.0"/>
  <rect fill="rgb(186,31,120)" fill-opacity="0.36000000000000004" height="9.0" width="12.0" x="174.0" y="54.0"/>
  <rect fill="rgb(186,31,120)" fill-opacity="0.41333333333333333" height="12.0" width="9.0" x="205.5" y="82.5"/>
  <rect fill="rgb(186,31,120)" fill-opacity="0.44" height="12.0" width="9.0" x="235.5" y="82.5"/>
  <rect fill="rgb(186,31,120)" fill-opacity="0.49333333333333335" height="9.0" width="12.0" x="264.0" y="114.0"/>
  <rect fill="rgb(186,31,120)" fill-opacity="0.52" height="12.0" width="0.0" x="270.0" y="138.0"/>
  <rect fill="rgb(186,31,120)" fill-opacity="0.6000000000000001" height="9.0" width="12.0" x="234.0" y="144.0"/>
  <rect fill="rgb(186,31,120)" fill-opacity="0.6533333333333333" height="12.0" width="9.0" x="265.5" y="172.5"/>
  <rect fill="rgb(186,31,120)" fill-opacity="0.76" height="9.0" width="12.0" x="264.0" y="174.0"/>
  <rect fill="rgb(186,31,120)" fill-opacity="0.8133333333333335" height="12.0" width="9.0" x="235.5" y="142.5"/>
  <rect fill="rgb(186,31,120)" fill-opacity="0.8400000000000001" height="12.0" width="9.0" x="205.5" y="142.5"/>
  <rect fill="rgb(186,31,120)" fill-opacity="0.8666666666666667" height="12.0" width="9.0" x="175.5" y="142.5"/>
  <line stroke="black" stroke-width="1" x1="30.0" x2="30.0" y1="28.5" y2="238.5"/>
  <line stroke="black" stroke-width="1" x1="60.0" x2="60.0" y1="28.5" y2="238.5"/>
  <line stroke="black" stroke-width="1" x1="90.0" x2="90.0" y1="28.5" y2="238.5"/>
  <line stroke="black" stroke-width="1" x1="120.0" x2="120.0" y1="28.5" y2="238.5"/>
  <line stroke="black" stroke-width="1" x1="150.0" x2="150.0" y1="28.5" y2="238.5"/>
  <line stroke="black" stroke-width="1" x1="180.0" x2="180.0" y1="28.5" y2="238.5"/>
  <line stroke="black" stroke-width="1" x1="210.0" x2="210.0" y1="28.5" y2="238.5"/>
  <line stroke="black" stroke-width="1" x1="240.0" x2="240.0" y1="28.5" y2="238.5"/>
  <line stroke="black" stroke-width="1" x1="270.0" x2="270.0" y1="28.5" y2="238.5"/>
  <line stroke="black" stroke-width="1" x1="300.0" x2="300.0" y1="28.5" y2="238.5"/>
  <line stroke="black" stroke-width="1" x1="330.0" x2="330.0" y1="28.5" y2="238.5"/>
  <line stroke="black" stroke-width="1" x1="360.0" x2="360.0" y1="28.5" y2="238.5"/>
  <line stroke="black" stroke-width="1" x1="30.0" x2="360.0" y1="28.5" y2="28.5"/>
  <line stroke="black" stroke-width="1" x1="30.0" x2="360.0" y1="58.5" y2="58.5"/>
  <line stroke="black" stroke-width="1" x1="30.0" x2="360.0" y1="88.5" y2="88.5"/>
  <line stroke="black" stroke-width="1" x1="30.0" x2="360.0" y1="118.5" y2="118.5"/>
  <line stroke="black" stroke-width="1" x1="30.0" x2="360.0" y1="148.5" y2="148.5"/>
  <line stroke="black" stroke-width="1" x1="30.0" x2="360.0" y1="178.5" y2="178.5"/>
  <line stroke="black" stroke-width="1" x1="30.0" x2="360.0" y1="208.5" y2="208.5"/>
  <line stroke="black" stroke-width="1" x1="30.0" x2="360.0" y1="238.5" y2="238.5"/>
</svg>
